# AST/ASF file generated using VICON BodyLanguage
# -----------------------------------------------
:version 1.10
:name VICON
:units
  mass 1.0
  length 0.45
  angle deg
:documentation
   .ast/.asf automatically generated from VICON data using
   VICON BodyBuilder and BodyLanguage model FoxedUp or BRILLIANT.MOD
:root
   order TX TY TZ RX RY RZ
   axis XYZ
   position 0 0 0  
   orientation 0 0 0 
:bonedata
  begin
     id 1 
     name lhipjoint
     direction 0.635376 -0.686425 0.353719 
     length 2.47244 
     axis 0 0 0  XYZ
  end
  begin
     id 2 
     name lfemur
     direction 0.34202 -0.939693 0  
     length 7.25268  
     axis 0 0 20  XYZ
    dof rx ry rz
    limits (-160.0 20.0)
           (-70.0 70.0)
           (-60.0 70.0)
  end
  begin
     id 3 
     name ltibia
     direction 0.34202 -0.939693 0   
     length 7.6767   
     axis 0 0 20   XYZ
    dof rx
    limits (-10.0 170.0)
  end
  begin
     id 4 
     name lfoot
     direction 0.0803374 -0.220725 0.972022   
     length 2.22945   
     axis -90 7.62852e-016 20   XYZ
    dof rx rz
    limits (-45.0 90.0)
           (-70.0 20.0)
  end
  begin
     id 5 
     name ltoes
     direction 1.53579e-011 -4.21994e-011 1   
     length 1.11848   
     axis -90 7.62852e-016 20   XYZ
    dof rx
    limits (-90.0 20.0)
  end
  begin
     id 6 
     name rhipjoint
     direction -0.664428 -0.664335 0.342336   
     length 2.55466  
     axis 0 0 0  XYZ 
  end
  begin
     id 7 
     name rfemur
     direction -0.34202 -0.939693 0   
     length 6.83172   
     axis 0 0 -20   XYZ
    dof rx ry rz
    limits (-160.0 20.0)
           (-70.0 70.0)
           (-70.0 60.0)
  end
  begin
     id 8 
     name rtibia
     direction -0.34202 -0.939693 0   
     length 7.62692   
     axis 0 0 -20   XYZ
    dof rx
    limits (-10.0 170.0)
 end
 begin
     id 9 
     name rfoot
     direction -0.0949276 -0.260811 0.960711   
     length 2.19684  
     axis -90 -7.62852e-016 -20   XYZ
    dof rx rz
    limits (-45.0 90.0)
           (-20.0 70.0)
  end
  begin
     id 10 
     name rtoes
     direction -1.53543e-011 -4.2183e-011 1   
     length 1.09848   
     axis -90 -7.62852e-016 -20   XYZ
    dof rx
    limits (-90.0 20.0)
  end
  begin
     id 11 
     name lowerback
     direction 0.0118782 0.999815 -0.0151555   
     length 2.15772   
     axis 0 0 0   XYZ
    dof rx ry rz
    limits (-20.0 45.0)
           (-30.0 30.0)
           (-30.0 30.0)
  end
  begin
     id 12 
     name upperback
     direction 0.00130825 0.999065 0.0432113   
     length 2.14863   
     axis 0 0 0   XYZ
    dof rx ry rz
    limits (-20.0 45.0)
           (-30.0 30.0)
           (-30.0 30.0)
  end
  begin
     id 13 
     name thorax
     direction -0.00347005 0.998773 0.0494011   
     length 2.14936   
     axis 0 0 0   XYZ
    dof rx ry rz
    limits (-20.0 45.0)
           (-30.0 30.0)
           (-30.0 30.0)
  end
  begin
     id 14 
     name lowerneck
     direction -0.0262159 0.99424 0.103921   
     length 1.69373   
     axis 0 0 0   XYZ
    dof rx ry rz
    limits (-20.0 45.0)
           (-30.0 30.0)
           (-30.0 30.0)
  end
  begin
     id 15 
     name upperneck
     direction 0.0353511 0.977394 -0.20845   
     length 1.70857   
     axis 0 0 0   XYZ
    dof rx ry rz
    limits (-20.0 45.0)
           (-30.0 30.0)
           (-30.0 30.0)
  end
  begin
     id 16
     name head
     direction 0.0139214 0.996594 -0.0812836  
     length 1.72777  
     axis 0 0 0   XYZ
    dof rx ry rz
    limits (-20.0 45.0)
           (-30.0 30.0)
           (-30.0 30.0)
  end
  begin
     id 17 
     name lclavicle
     direction 0.841247 0.537205 -0.0609508  
     length 3.55371  
     axis 0 0 0   XYZ
    dof ry rz
    limits (-20.0 10.0)
           (0.0 20.0)
  end
  begin
     id 18 
     name lhumerus
     direction 1 -4.48964e-011 1.60116e-018   
     length 4.91377   
     axis -180 -30 -90   XYZ
    dof rx ry rz
    limits (-60.0 90.0)
           (-90.0 90.0)
           (-90.0 90.0)
  end
  begin
     id 19
     name lradius
     direction 1 -4.48989e-011 -8.93847e-027   
     length 3.00291   
     axis -180 -30 -90   XYZ
    dof rx
    limits (-10.0 170.0)
  end
  begin
     id 20
     name lwrist
     direction 1 -4.48932e-011 -7.31504e-027   
     length 1.50145   
     axis 5.74121e-015 90 90   XYZ
    dof ry
    limits (-180.0 0.0)
 end
  begin
     id 21 
     name lhand
     direction 1 -4.48971e-011 -1.46301e-026   
     length 0.450922   
     axis 9.33524e-015 90 90   XYZ
    dof rx rz
    limits (-90.0 90.0)
           (-45.0 45.0)
  end
  begin
     id 22 
     name lfingers
     direction 1 -4.49039e-011 -2.92602e-026   
     length 0.363545   
     axis 1.86705e-014 90 90   XYZ
    dof rx
    limits (0.0 90.0)
  end
  begin
     id 23
     name lthumb
     direction 0.707107 -6.34941e-011 0.707107   
     length 0.52198   
     axis -90 45 2.85299e-015   XYZ
    dof rx rz
    limits (-45.0 45.0)
           (-45.0 45.0)
  end
  begin
     id 24 
     name rclavicle
     direction -0.825079 0.56158 -0.0622297   
     length 3.39909  
     axis 0 0 0   XYZ 
    dof ry rz
    limits (-10.0 20.0)
           (-20.0 0.0)
  end
  begin
     id 25 
     name rhumerus
     direction -1 -4.48965e-011 1.61691e-027  
     length 4.86725   
     axis -180 30 90   XYZ
    dof rx ry rz
    limits (-90.0 60.0)
           (-90.0 90.0)
           (-90.0 90.0)
  end
  begin
     id 26 
     name rradius
     direction -1 -4.48964e-011 -2.25776e-027   
     length 3.17144   
     axis -180 30 90   XYZ
    dof rx
    limits (-10.0 170.0)
  end
  begin
     id 27 
     name rwrist
     direction -1 -4.48961e-011 -7.31504e-027   
     length 1.58572   
     axis 5.74121e-015 -90 -90   XYZ
    dof ry
    limits (-180.0 0.0)
  end
  begin
     id 28
     name rhand
     direction -1 -4.49013e-011 -1.46301e-026   
     length 0.419368   
     axis 9.33524e-015 -90 -90   XYZ
    dof rx rz
    limits (-90.0 90.0)
           (-45.0 45.0)
  end
  begin
     id 29
     name rfingers
     direction -1 -4.489e-011 -2.92602e-026   
     length 0.338105   
     axis 1.86705e-014 -90 -90   XYZ
    dof rx
    limits (0.0 90.0)
  end
  begin
     id 30
     name rthumb
     direction -0.707107 -6.35022e-011 0.707107   
     length 0.485453   
     axis -90 -45 -2.85299e-015   XYZ
    dof rx rz
    limits (-45.0 45.0)
           (-45.0 45.0)
  end
:hierarchy
  begin
    root lhipjoint rhipjoint lowerback
    lhipjoint lfemur
    lfemur ltibia
    ltibia lfoot
    lfoot ltoes
    rhipjoint rfemur
    rfemur rtibia
    rtibia rfoot
    rfoot rtoes
    lowerback upperback
    upperback thorax
    thorax lowerneck lclavicle rclavicle
    lowerneck upperneck
    upperneck head
    lclavicle lhumerus
    lhumerus lradius
    lradius lwrist
    lwrist lhand lthumb
    lhand lfingers
    rclavicle rhumerus
    rhumerus rradius
    rradius rwrist
    rwrist rhand rthumb
    rhand rfingers
  end

#!OML:ASF H:\Swim 2\Project 1\Capture day 1\Session 1\male.ASF
:FULLY-SPECIFIED
:DEGREES
223
root 0.292046 14.4767 8.47777 112.625 3.06842 -0.0891245
lowerback -25.6119 4.19519 -15.7258
upperback -7.68603 10.0584 1.51087
thorax 2.36478 5.64709 13.132
lowerneck -11.2001 -9.2048 5.58022
upperneck -10.1605 -13.6635 -5.7997
head -2.26251 -7.15719 -2.95962
rclavicle -5.725e-014 4.11484e-014
rhumerus -20.288 26.7597 -37.1521
rradius 97.6435
rwrist -19.7056
rhand -30.329 14.858
rfingers 7.12502
rthumb -3.63519 -15.0907
lclavicle -5.725e-014 4.11484e-014
lhumerus 16.8439 -62.5204 43.8112
lradius 88.6879
lwrist 45.5742
lhand -48.1194 -31.0753
lfingers 7.12502
lthumb -20.7832 -2.16836
rfemur -38.7117 5.32795 19.3262
rtibia 14.3795
rfoot 2.21435 -18.0355
rtoes 11.4774
lfemur -43.4813 -9.23654 -11.2938
ltibia 27.8607
lfoot -1.57858 10.255
ltoes -1.72183
224
root 0.297718 14.4688 8.48678 112.457 3.03734 -0.0855156
lowerback -25.0951 4.13459 -15.6759
upperback -7.84008 9.85416 1.69579
thorax 1.9685 5.59967 13.1807
lowerneck -10.5632 -9.09431 5.35927
upperneck -9.76099 -13.4446 -5.97326
head -2.21464 -7.01947 -2.95541
rclavicle -4.45278e-014 -3.97569e-016
rhumerus -22.7764 28.0864 -38.7779
rradius 96.8093
rwrist -20.1138
rhand -30.8363 14.9287
rfingers 7.12502
rthumb -4.12506 -15.0111
lclavicle -4.45278e-014 -3.97569e-016
lhumerus 10.8114 -64.0186 48.2401
lradius 85.8676
lwrist 46.89
lhand -48.4998 -34.901
lfingers 7.12502
lthumb -21.1486 -6.03449
rfemur -38.7782 5.05922 19.211
rtibia 14.4126
rfoot 1.71653 -17.3278
rtoes 10.5507
lfemur -43.8392 -10.1779 -10.6966
ltibia 27.1266
lfoot -2.24932 11.4593
ltoes -1.79208
225
root 0.305147 14.4606 8.49403 112.214 2.98226 -0.0909032
lowerback -24.6601 4.06086 -15.472
upperback -7.79903 9.61026 1.80754
thorax 1.89416 5.47068 13.0926
lowerneck -10.2585 -8.8847 5.20831
upperneck -9.38192 -13.1033 -6.03104
head -2.10614 -6.83169 -2.94486
rclavicle 7.95139e-014 2.92213e-014
rhumerus -24.9703 29.0027 -40.4062
rradius 95.7548
rwrist -20.1523
rhand -31.4701 15.1868
rfingers 7.12502
rthumb -4.73705 -14.7402
lclavicle 7.95139e-014 2.92213e-014
lhumerus 4.77271 -64.9017 52.5262
lradius 82.8449
lwrist 47.9366
lhand -48.5956 -38.6682
lfingers 7.12502
lthumb -21.2406 -9.81198
rfemur -38.8344 4.61225 19.1882
rtibia 14.7539
rfoot 1.48473 -16.4437
rtoes 8.79468
lfemur -44.1053 -11.078 -10.205
ltibia 26.5429
lfoot -2.97544 12.6459
ltoes -1.67479
226
root 0.313397 14.4513 8.49982 111.907 2.92661 -0.106526
lowerback -24.329 3.97555 -15.1021
upperback -7.56861 9.331 1.84185
thorax 2.14358 5.26498 12.8563
lowerneck -10.2963 -8.58673 5.11455
upperneck -9.03042 -12.651 -5.93348
head -1.9349 -6.59905 -2.91138
rclavicle -8.5875e-014 -1.27222e-014
rhumerus -26.8369 29.5396 -42.0016
rradius 94.4958
rwrist -19.9132
rhand -32.2301 15.5864
rfingers 7.12502
rthumb -5.47091 -14.323
lclavicle -8.5875e-014 -1.27222e-014
lhumerus -0.911114 -65.2507 56.322
lradius 79.5954
lwrist 48.4962
lhand -48.5306 -42.3825
lfingers 7.12502
lthumb -21.1781 -13.5193
rfemur -38.8634 4.08966 19.2236
rtibia 15.325
rfoot 1.5366 -15.5275
rtoes 6.64271
lfemur -44.2564 -11.8459 -9.85482
ltibia 26.0998
lfoot -3.58143 13.67
ltoes -0.934404
227
root 0.321271 14.4407 8.50471 111.564 2.88689 -0.143612
lowerback -24.1254 3.87585 -14.538
upperback -7.17516 9.01109 1.77272
thorax 2.70322 4.9877 12.4223
lowerneck -10.6436 -8.20322 5.07243
upperneck -8.70412 -12.088 -5.6285
head -1.70342 -6.31923 -2.8327
rclavicle -6.67916e-014 -2.127e-014
rhumerus -28.3645 29.7711 -43.6004
rradius 93.0332
rwrist -19.579
rhand -33.1214 16.1847
rfingers 7.12502
rthumb -6.33144 -13.7007
lclavicle -6.67916e-014 -2.127e-014
lhumerus -6.00836 -65.1514 59.3663
lradius 76.1041
lwrist 48.4259
lhand -48.3911 -45.5435
lfingers 7.12502
lthumb -21.0441 -16.6654
rfemur -38.8742 3.51158 19.3283
rtibia 16.0527
rfoot 1.78793 -14.6286
rtoes 4.13775
lfemur -44.2929 -12.3736 -9.69154
ltibia 25.7929
lfoot -3.93346 14.3999
ltoes -0.343145
228
root 0.328158 14.4283 8.50831 111.185 2.8708 -0.19845
lowerback -23.9416 3.76401 -13.9149
upperback -6.79379 8.66678 1.6833
thorax 3.26842 4.70402 11.9253
lowerneck -11.0141 -7.80137 5.00721
upperneck -8.33683 -11.4941 -5.23346
head -1.44934 -6.02149 -2.7193
rclavicle -1.27222e-013 -1.8487e-014
rhumerus -29.9041 29.9445 -45.1394
rradius 91.4918
rwrist -19.4386
rhand -34.0125 16.7205
rfingers 7.12502
rthumb -7.19161 -13.1373
lclavicle -1.27222e-013 -1.8487e-014
lhumerus -11.0545 -64.8966 62.3385
lradius 72.337
lwrist 47.5966
lhand -48.3312 -48.1204
lfingers 7.12502
lthumb -20.9866 -19.2359
rfemur -38.8461 2.87029 19.5158
rtibia 16.8825
rfoot 2.2002 -13.7594
rtoes 1.67865
lfemur -44.1976 -12.5728 -9.76632
ltibia 25.622
lfoot -4.03601 14.7736
ltoes 0.275503
229
root 0.333484 14.4142 8.51017 110.784 2.88159 -0.274218
lowerback -23.7958 3.64618 -13.2621
upperback -6.43929 8.31691 1.57566
thorax 3.81918 4.42837 11.3883
lowerneck -11.3582 -7.40682 4.91306
upperneck -7.94578 -10.9056 -4.75748
head -1.19106 -5.72256 -2.57033
rclavicle -3.18055e-014 3.16068e-014
rhumerus -31.4839 30.0861 -46.6033
rradius 89.8729
rwrist -19.6792
rhand -34.8489 17.192
rfingers 7.12502
rthumb -7.99889 -12.6366
lclavicle -3.18055e-014 3.16068e-014
lhumerus -15.9633 -64.5412 65.2046
lradius 68.2875
lwrist 46.0726
lhand -48.4358 -49.8437
lfingers 7.12502
lthumb -21.0871 -20.9703
rfemur -38.7876 2.15907 19.792
rtibia 17.7881
rfoot 2.7728 -12.8812
rtoes -0.201381
lfemur -43.9786 -12.4201 -10.0827
ltibia 25.5825
lfoot -3.84665 14.7383
ltoes 0.982906
230
root 0.33725 14.3986 8.50929 110.361 2.91987 -0.361576
lowerback -23.6874 3.52718 -12.5915
upperback -6.11561 7.97034 1.45073
thorax 4.34609 4.16664 10.8201
lowerneck -11.6749 -7.03217 4.78263
upperneck -7.51511 -10.3403 -4.21608
head -0.926455 -5.43093 -2.39098
rclavicle -3.18055e-015 4.6615e-014
rhumerus -33.0789 30.185 -47.9648
rradius 88.1772
rwrist -20.4165
rhand -35.5001 17.5413
rfingers 7.12502
rthumb -8.62738 -12.2625
lclavicle -3.18055e-015 4.6615e-014
lhumerus -20.653 -64.1154 67.9159
lradius 63.9614
lwrist 44.0281
lhand -48.7697 -51.0249
lfingers 7.12502
lthumb -21.4078 -22.1876
rfemur -38.6963 1.40145 20.136
rtibia 18.7516
rfoot 3.49943 -11.9682
rtoes -1.16713
lfemur -43.6538 -11.9613 -10.6016
ltibia 25.676
lfoot -3.40186 14.3063
ltoes 2.4254
231
root 0.339651 14.3821 8.50527 109.92 2.98225 -0.455272
lowerback -23.6177 3.41144 -11.9215
upperback -5.82998 7.637 1.31258
thorax 4.83613 3.9253 10.2374
lowerneck -11.9598 -6.67951 4.6716
upperneck -7.05167 -9.8121 -3.68334
head -0.666869 -5.15519 -2.2159
rclavicle 4.13472e-014 9.34288e-015
rhumerus -34.6866 30.2553 -49.218
rradius 86.3562
rwrist -21.5933
rhand -36.054 17.9041
rfingers 7.12502
rthumb -9.16193 -11.8769
lclavicle 4.13472e-014 9.34288e-015
lhumerus -25.0803 -63.6358 70.4532
lradius 59.4028
lwrist 41.7184
lhand -49.2516 -51.6221
lfingers 7.12502
lthumb -21.8706 -22.8381
rfemur -38.5756 0.643061 20.5103
rtibia 19.7624
rfoot 4.34534 -11.0091
rtoes -1.2301
lfemur -43.2489 -11.2732 -11.2661
ltibia 25.9024
lfoot -2.91362 13.6505
ltoes 3.64572
